#!OML:ASF E:\Style4\Style4.ASF
:FULLY-SPECIFIED
:DEGREES
832
root -0.733042 17.6446 -0.753794 2.51172 22.8282 2.50314
lowerback 7.8855 2.99243 0.371301
upperback 4.88728 4.03105 -0.175943
thorax 0.676254 2.04305 -0.673611
lowerneck -0.834813 -5.54082 -6.2096
upperneck 9.39032 -7.63854 5.73099
head 3.76421 -3.78372 2.73321
rclavicle -2.17669e-014 2.78299e-015
rhumerus 53.9953 -18.09 -7.84955
rradius 62.3731
rwrist -36.5106
rhand 10.1694 9.60051
rfingers 7.12502
rthumb 35.287 -16.888
lclavicle -2.17669e-014 2.78299e-015
lhumerus 54.6495 19.8193 7.96716
lradius 71.2382
lwrist 30.7187
lhand 14.0028 25.9294
lfingers 7.12502
lthumb 38.9122 51.4745
rfemur -15.4853 -17.2552 19.5278
rtibia 37.5238
rfoot -23.9404 -23.9001
rtoes -7.21106
lfemur -20.6308 -7.89885 -18.424
ltibia 33.0232
lfoot -13.7976 0.406571
ltoes -16.9562
833
root -0.730741 17.6502 -0.761483 2.64544 22.8272 2.42914
lowerback 7.92773 2.97476 0.501121
upperback 4.8252 4.01514 -0.184028
thorax 0.598081 2.03712 -0.757548
lowerneck -0.707919 -5.5695 -6.06507
upperneck 9.318 -7.66865 5.54049
head 3.69728 -3.80192 2.64243
rclavicle -6.2816e-014 1.90833e-014
rhumerus 54.3684 -18.6661 -8.29423
rradius 62.2338
rwrist -36.4481
rhand 9.80932 9.57217
rfingers 7.12502
rthumb 34.9455 -16.9966
lclavicle -6.2816e-014 1.90833e-014
lhumerus 54.9369 20.334 8.42797
lradius 71.0422
lwrist 30.9324
lhand 13.7144 25.9773
lfingers 7.12502
lthumb 38.6402 51.5994
rfemur -15.6562 -17.1792 19.662
rtibia 37.4405
rfoot -24.1265 -23.7683
rtoes -5.89897
lfemur -20.795 -7.89921 -18.3368
ltibia 32.9385
lfoot -13.6869 0.406688
ltoes -16.5707
834
root -0.72918 17.6554 -0.768369 2.75192 22.8426 2.39202
lowerback 8.01724 2.94066 0.597785
upperback 4.74478 3.97549 -0.224624
thorax 0.474524 2.01862 -0.858124
lowerneck -0.604019 -5.55151 -5.92153
upperneck 9.34744 -7.64203 5.39593
head 3.66955 -3.78967 2.57003
rclavicle 4.59193e-014 -8.34896e-015
rhumerus 54.7319 -19.2058 -8.66587
rradius 62.0936
rwrist -36.5077
rhand 9.51502 9.49893
rfingers 7.12502
rthumb 34.6662 -17.1344
lclavicle 4.59193e-014 -8.34896e-015
lhumerus 55.1998 20.789 8.79966
lradius 70.8526
lwrist 31.1186
lhand 13.3973 25.8666
lfingers 7.12502
lthumb 38.3409 51.5723
rfemur -15.7667 -17.1111 19.7421
rtibia 37.3729
rfoot -24.4415 -23.5585
rtoes -4.40899
lfemur -20.943 -7.93857 -18.2911
ltibia 32.9064
lfoot -13.652 0.502589
ltoes -16.6427
835
root -0.726782 17.6569 -0.775076 2.88424 22.8192 2.42273
lowerback 8.04269 2.92684 0.589127
upperback 4.69528 3.95597 -0.244467
thorax 0.409755 2.00817 -0.875514
lowerneck -0.459837 -5.5399 -5.9603
upperneck 9.31248 -7.62995 5.39498
head 3.63101 -3.78713 2.58102
rclavicle -3.61788e-014 -3.97569e-015
rhumerus 55.1107 -19.7273 -9.03428
rradius 61.9869
rwrist -36.5074
rhand 9.28251 9.35578
rfingers 7.12502
rthumb 34.4455 -17.328
lclavicle -3.61788e-014 -3.97569e-015
lhumerus 55.4265 21.2825 9.23952
lradius 70.724
lwrist 31.1314
lhand 13.2755 25.7279
lfingers 7.12502
lthumb 38.226 51.4653
rfemur -15.9219 -16.9963 19.7325
rtibia 37.3583
rfoot -24.5046 -23.6227
rtoes -4.35714
lfemur -21.0878 -7.92401 -18.3191
ltibia 32.8932
lfoot -13.6863 0.556732
ltoes -17.1485
836
root -0.725077 17.6563 -0.78144 2.95943 22.7974 2.45539
lowerback 8.10779 2.92749 0.594859
upperback 4.68728 3.95721 -0.261908
thorax 0.3674 2.00886 -0.90073
lowerneck -0.414346 -5.53028 -6.06655
upperneck 9.28883 -7.62086 5.46643
head 3.62341 -3.78474 2.62669
rclavicle -4.26393e-014 -3.97569e-015
rhumerus 55.4574 -20.2583 -9.40456
rradius 61.8667
rwrist -36.4663
rhand 9.13527 9.31599
rfingers 7.12502
rthumb 34.3057 -17.3994
lclavicle -4.26393e-014 -3.97569e-015
lhumerus 55.6716 21.7631 9.65016
lradius 70.6327
lwrist 30.986
lhand 13.104 25.7006
lfingers 7.12502
lthumb 38.064 51.4824
rfemur -16.0604 -16.8801 19.7021
rtibia 37.4051
rfoot -24.5275 -23.7206
rtoes -4.45416
lfemur -21.1841 -7.91831 -18.3536
ltibia 32.9144
lfoot -13.6731 0.555254
ltoes -17.1651
837
root -0.724128 17.6547 -0.788281 3.04741 22.8198 2.52838
lowerback 8.13564 2.90665 0.566578
upperback 4.73474 3.92809 -0.286325
thorax 0.400497 1.99467 -0.907817
lowerneck -0.496977 -5.51711 -6.13111
upperneck 9.28977 -7.60008 5.49891
head 3.64351 -3.77457 2.64864
rclavicle -3.97569e-016 5.56597e-015
rhumerus 55.8765 -20.8332 -9.88938
rradius 61.7624
rwrist -36.3488
rhand 9.095 9.21234
rfingers 7.12502
rthumb 34.2675 -17.5116
lclavicle -3.97569e-016 5.56597e-015
lhumerus 55.9098 22.2731 10.0699
lradius 70.5325
lwrist 30.8449
lhand 12.8554 25.6142
lfingers 7.12502
lthumb 37.8293 51.4596
rfemur -16.2178 -16.8967 19.6574
rtibia 37.518
rfoot -24.4903 -23.706
rtoes -4.42585
lfemur -21.3131 -7.93948 -18.4271
ltibia 32.9746
lfoot -13.6146 0.543139
ltoes -17.2086
838
root -0.723022 17.6514 -0.795914 3.08723 22.8402 2.49516
lowerback 8.17165 2.88966 0.61282
upperback 4.78221 3.90926 -0.275517
thorax 0.431854 1.98659 -0.921406
lowerneck -0.508969 -5.52205 -6.04838
upperneck 9.17232 -7.5989 5.42301
head 3.59549 -3.77393 2.60733
rclavicle -3.97569e-015 -1.98785e-015
rhumerus 56.1256 -21.3856 -10.1843
rradius 61.7742
rwrist -36.4353
rhand 8.83729 9.21941
rfingers 7.12502
rthumb 34.0227 -17.5593
lclavicle -3.97569e-015 -1.98785e-015
lhumerus 56.1994 22.7744 10.5352
lradius 70.4539
lwrist 30.9364
lhand 12.6248 25.6996
lfingers 7.12502
lthumb 37.6114 51.6035
rfemur -16.3843 -16.929 19.7191
rtibia 37.6845
rfoot -24.5114 -23.664
rtoes -4.4426
lfemur -21.4598 -7.9238 -18.3941
ltibia 33.0803
lfoot -13.6242 0.50225
ltoes -17.0836
839
root -0.720682 17.6446 -0.803928 3.13098 22.8263 2.52761
lowerback 8.24839 2.91402 0.631128
upperback 4.79714 3.9431 -0.300693
thorax 0.408991 2.00428 -0.963776
lowerneck -0.307758 -5.56347 -5.90461
upperneck 8.87795 -7.65242 5.34173
head 3.44536 -3.80202 2.55665
rclavicle 4.47266e-015 9.14409e-015
rhumerus 56.1376 -21.9217 -10.2127
rradius 61.8568
rwrist -36.6975
rhand 8.69727 9.054
rfingers 7.12502
rthumb 33.8897 -17.7542
lclavicle 4.47266e-015 9.14409e-015
lhumerus 56.5427 23.2142 11.0346
lradius 70.4334
lwrist 31.0872
lhand 12.5801 25.698
lfingers 7.12502
lthumb 37.5692 51.6132
rfemur -16.5678 -16.9087 19.6729
rtibia 37.9063
rfoot -24.5476 -23.716
rtoes -4.77548
lfemur -21.6007 -7.89081 -18.4425
ltibia 33.217
lfoot -13.601 0.487798
ltoes -17.0299
840
root -0.717148 17.6357 -0.812166 3.15912 22.828 2.63027
lowerback 8.36924 2.92077 0.608228
upperback 4.80294 3.95075 -0.358306
thorax 0.35148 2.00831 -1.01751
lowerneck -0.0986803 -5.57065 -5.8733
upperneck 8.60746 -7.66709 5.37769
head 3.31318 -3.81118 2.5689
rclavicle 2.42517e-014 -1.35174e-014
rhumerus 56.3635 -22.2826 -10.5677
rradius 61.8326
rwrist -36.5627
rhand 8.71075 8.86426
rfingers 7.12502
rthumb 33.9025 -17.9411
lclavicle 2.42517e-014 -1.35174e-014
lhumerus 56.8021 23.5805 11.3656
lradius 70.438
lwrist 31.2256
lhand 12.5452 25.6063
lfingers 7.12502
lthumb 37.5362 51.5302
rfemur -16.7204 -16.9211 19.53
rtibia 38.1587
rfoot -24.585 -23.7602
rtoes -5.04147
lfemur -21.7156 -7.86761 -18.5761
ltibia 33.3976
lfoot -13.6491 0.545335
ltoes -17.5335
841
root -0.713106 17.6264 -0.82028 3.22949 22.8638 2.80479
lowerback 8.45475 2.90278 0.500327
upperback 4.81545 3.91946 -0.423338
thorax 0.314209 1.99148 -1.02639
lowerneck -0.0564166 -5.5528 -5.81254
upperneck 8.50159 -7.64295 5.36971
head 3.26319 -3.79856 2.55759
rclavicle -1.33782e-013 8.74653e-015
rhumerus 56.7403 -22.4578 -11.0807
rradius 61.7156
rwrist -36.3346
rhand 8.56381 8.93097
rfingers 7.12502
rthumb 33.7629 -17.9051
lclavicle -1.33782e-013 8.74653e-015
lhumerus 57.0072 23.8428 11.6589
lradius 70.4287
lwrist 31.3363
lhand 12.4254 25.5842
lfingers 7.12502
lthumb 37.423 51.5381
rfemur -16.9049 -17.015 19.3228
rtibia 38.4571
rfoot -24.6633 -23.7311
rtoes -5.35453
lfemur -21.8608 -7.84446 -18.7835
ltibia 33.6009
lfoot -13.8011 0.552989
ltoes -18.0498
842
root -0.708005 17.6147 -0.828082 3.20813 22.902 2.87274
lowerback 8.55581 2.88901 0.475642
upperback 4.8469 3.90004 -0.427731
thorax 0.289634 1.98161 -1.02038
lowerneck 0.0564805 -5.57636 -5.78674
upperneck 8.3407 -7.67556 5.37367
head 3.18745 -3.81603 2.55646
rclavicle 5.60573e-014 -4.77083e-015
rhumerus 56.9825 -22.5861 -11.3207
rradius 61.6243
rwrist -36.4371
rhand 8.2741 9.06062
rfingers 7.12502
rthumb 33.4876 -17.8354
lclavicle 5.60573e-014 -4.77083e-015
lhumerus 57.1792 24.0241 12.0016
lradius 70.4649
lwrist 31.3878
lhand 12.2762 25.7364
lfingers 7.12502
lthumb 37.2819 51.7275
rfemur -17.0384 -17.1655 19.2042
rtibia 38.7832
rfoot -24.7911 -23.6361
rtoes -5.36855
lfemur -21.9636 -7.84154 -18.8851
ltibia 33.8484
lfoot -13.8871 0.375715
ltoes -17.2051
